HIERARCHY
ROOT Hips
{
  OFFSET -35.4901 99.2528 17.4586
  CHANNELS 6 Xposition Yposition Zposition Zrotation Xrotation Yrotation
  JOINT LeftUpLeg
  {
    OFFSET 8.64259 1.95398 -2.38835
    CHANNELS 3 Zrotation Xrotation Yrotation
    JOINT LeftLeg
    {
      OFFSET 43.7702 0 0
      CHANNELS 3 Zrotation Xrotation Yrotation
      JOINT LeftFoot
      {
        OFFSET 40.6238 0 0
        CHANNELS 3 Zrotation Xrotation Yrotation
        JOINT LeftToeBase
        {
          OFFSET 12.7242 0 0
          CHANNELS 3 Zrotation Xrotation Yrotation
          End Site
          {
            OFFSET 0 0 0
          }
        }
      }
    }
  }
  JOINT RightUpLeg
  {
    OFFSET -8.2249 1.95398 -2.59336
    CHANNELS 3 Zrotation Xrotation Yrotation
    JOINT RightLeg
    {
      OFFSET 43.5653 0 0
      CHANNELS 3 Zrotation Xrotation Yrotation
      JOINT RightFoot
      {
        OFFSET 40.6238 0 0
        CHANNELS 3 Zrotation Xrotation Yrotation
        JOINT RightToeBase
        {
          OFFSET 12.7242 0 0
          CHANNELS 3 Zrotation Xrotation Yrotation
          End Site
          {
            OFFSET 0 0 0
          }
        }
      }
    }
  }
  JOINT Spine
  {
    OFFSET 0.165834 0.87714 6.61349
    CHANNELS 3 Zrotation Xrotation Yrotation
    JOINT Spine1
    {
      OFFSET 7.38963 1.71661e-005 0
      CHANNELS 3 Zrotation Xrotation Yrotation
      JOINT Spine2
      {
        OFFSET 11.9445 1.14441e-005 0
        CHANNELS 3 Zrotation Xrotation Yrotation
        JOINT Spine3
        {
          OFFSET 14.7254 4.19617e-005 0
          CHANNELS 3 Zrotation Xrotation Yrotation
          JOINT Spine4
          {
            OFFSET 10.9679 0 0
            CHANNELS 3 Zrotation Xrotation Yrotation
            JOINT RightShoulder
            {
              OFFSET 2.46616 -1.6653 3.69651
              CHANNELS 3 Zrotation Xrotation Yrotation
              JOINT RightArm
              {
                OFFSET 13.0012 0 0
                CHANNELS 3 Zrotation Xrotation Yrotation
                JOINT RightForeArm
                {
                  OFFSET 28.7848 1.52588e-005 0
                  CHANNELS 3 Zrotation Xrotation Yrotation
                  JOINT RightHand
                  {
                    OFFSET 26.5688 1.52588e-005 0
                    CHANNELS 3 Zrotation Xrotation Yrotation
                    End Site
                    {
                      OFFSET 0 0 0
                    }
                  }
                }
              }
            }
            JOINT LeftShoulder
            {
              OFFSET 2.38034 -1.29275 -3.7523
              CHANNELS 3 Zrotation Xrotation Yrotation
              JOINT LeftArm
              {
                OFFSET 16.3182 6.10351e-005 0
                CHANNELS 3 Zrotation Xrotation Yrotation
                JOINT LeftForeArm
                {
                  OFFSET 27.0901 0 0
                  CHANNELS 3 Zrotation Xrotation Yrotation
                  JOINT LeftHand
                  {
                    OFFSET 24.5451 1.52588e-005 0
                    CHANNELS 3 Zrotation Xrotation Yrotation
                    End Site
                    {
                      OFFSET 0 0 0
                    }
                  }
                }
              }
            }
            JOINT Neck
            {
              OFFSET 5.0226 -0.0266342 0
              CHANNELS 3 Zrotation Xrotation Yrotation
              JOINT Head
              {
                OFFSET 6.69364 2.86102e-005 0
                CHANNELS 3 Zrotation Xrotation Yrotation
                End Site
                {
                  OFFSET 0 0 0
                }
              }
            }
          }
        }
      }
    }
  }
}
MOTION
Frames:	9
Frame Time:	0.0416667
36.1495 100.771 -336.74 -176.056 -83.8006 -177.333 -175.805 -7.02133 92.5071 -6.50256 3.09919 -0.048822 69.3648 5.11271 1.12771 22.5529 -10.1713 15.8485 170.466 -4.00745 88.6603 -12.5281 -9.11891 -0.465307 71.2186 -5.15831 -0.392362 23.6409 -1.11222 3.3099 0.195842 7.53303 -89.9469 11.8077 0.414502 0.0619389 0.136867 0.416836 0.043627 -22.3987 0.376724 0.183645 -2.38608 0.376734 0.183656 91.1248 -32.5039 -103.677 41.5765 -12.9313 -8.34035 -0.766502 -27.6436 -14.2492 -14.8531 -0.212013 -8.99585 -84.2334 -50.5147 87.4572 -23.9534 18.7211 -17.5372 0.0871043 11.3021 -6.41041 -0.807021 -0.105533 -5.46747 2.87507 -3.33115 -1.50913 -7.90688 -2.9573 -1.66638 
35.1414 100.503 -335.944 -171.03 -82.9411 -173.132 -175.076 -7.79415 92.6272 -7.47502 3.13589 -0.667871 70.5187 6.56444 4.21257 22.4108 -4.62335 7.50489 169.537 -4.28949 87.6997 -14.4993 -10.1859 -0.0856614 73.1866 -5.65438 0.0466392 22.6856 -1.2253 3.62141 0.244847 7.60857 -89.872 11.6566 0.547098 0.198228 -0.0142452 0.555293 0.173941 -22.55 0.462224 0.353487 -2.53735 0.462232 0.353489 89.3029 -32.2484 -107.263 41.2438 -13.8049 -7.01513 3.31757 -32.41 -14.0031 -26.1841 -0.573038 -5.9038 -83.8429 -52.1606 88.2208 -23.4518 15.2751 -15.3432 1.65317 10.9193 -7.19568 -4.72831 0.033955 -10.48 1.54178 -2.93525 -0.390509 -7.26465 -2.76926 -1.64722 
33.8664 99.9573 -335.152 -175.25 -82.6413 -177.739 -173.336 -5.54083 93.819 -12.8652 4.91217 -1.0406 71.3228 7.52192 3.70295 24.8663 -5.12803 8.40547 169.506 -3.96878 87.9461 -17.3607 -9.57818 0.10109 75.3276 -6.1608 -0.259723 21.3183 -1.13515 3.48452 0.302457 7.73641 -89.8101 11.4002 0.690493 0.307922 -0.27064 0.703375 0.277224 -22.8066 0.566015 0.501201 -2.79391 0.566027 0.501211 89.5326 -31.8476 -106.972 41.3719 -14.0029 -7.16402 4.04347 -31.9372 -13.6937 -26.0567 -0.484835 -6.393 -83.5406 -51.6947 88.6186 -23.3885 13.1138 -13.7361 2.94848 9.34474 -8.91167 -1.45017 -0.125588 -8.17194 2.344 -2.72203 0.308021 -7.64101 -2.66269 -1.61366 
32.9771 99.4048 -334.555 177.766 -82.8374 175.325 -173.164 2.53925 95.0689 -28.169 3.75157 -0.229246 72.2119 7.01172 -1.08299 27.3107 -5.94048 9.93401 169.532 -3.55356 88.5062 -19.0563 -8.58329 0.474636 77.1859 -6.68588 -0.562054 21.5493 -1.69055 4.72724 0.333012 7.7916 -89.8838 11.2903 0.716884 0.160277 -0.380457 0.723248 0.128562 -22.9168 0.635569 0.368331 -2.9042 0.635572 0.368329 89.0356 -31.7522 -107.964 40.3413 -13.4977 -6.38939 3.91985 -31.3465 -14.0319 -24.7422 -0.523976 -6.14078 -83.3844 -51.918 88.8727 -23.1157 11.4379 -12.0175 3.67053 8.54593 -9.79383 -1.61325 -0.116538 -8.28509 2.21497 -2.37192 1.29322 -7.27564 -2.47056 -1.70231 
32.4138 99.1267 -333.726 164.999 -83.1263 161.884 -174.604 10.6114 93.2295 -40.7285 4.68772 1.08592 71.0091 5.98923 -3.23192 25.7025 -5.39374 8.89375 169.496 -3.92616 88.4832 -18.6868 -6.61979 0.445147 78.6135 -6.9068 -0.136468 21.3071 -1.53837 4.38473 0.417979 7.80749 -89.8786 11.2585 0.88839 0.153778 -0.412136 0.894293 0.114524 -22.9493 0.801093 0.413685 -2.93664 0.801094 0.413675 89.3291 -30.7962 -107.77 40.988 -12.5508 -6.03659 4.96225 -25.9979 -13.763 -24.6299 -0.0237003 -8.0324 -83.3365 -51.5766 88.9101 -23.2876 10.365 -10.3929 3.96081 7.53449 -10.0927 -0.939664 -0.138051 -8.16932 1.7767 -2.41815 1.65815 -6.9757 -2.55422 -2.16254 
32.6336 99.3086 -332.355 158.545 -83.555 153.798 -176.236 15.6285 89.4661 -40.2677 4.72965 0.263164 70.0431 4.96174 -8.10408 26.0857 -7.81176 12.8238 168.668 -4.06509 86.7008 -18.339 -7.06662 0.205319 78.7741 -7.03622 -0.250826 22.5588 -1.17384 3.5127 0.678522 7.86191 -89.8077 11.1492 1.43988 0.242238 -0.521009 1.44915 0.178617 -23.0615 1.3005 0.663857 -3.04882 1.3005 0.663847 89.0966 -30.5293 -108.33 39.3982 -13.4107 -7.59489 6.40771 -26.4984 -12.6599 -25.7819 -0.0447131 -7.84651 -83.2646 -51.4276 89.0024 -24.1978 8.94223 -8.56469 4.85235 7.73808 -11.2508 -0.968857 -0.134449 -7.94779 1.94937 -2.97355 2.87326 -6.97775 -3.26031 -2.98923 
33.0781 99.048 -330.061 146.394 -83.6726 140.511 -178.338 17.7401 85.3786 -28.6001 7.3153 -0.989243 66.8402 3.97119 -4.19435 23.8646 -5.87955 9.70742 168.155 -4.61583 85.4466 -18.4553 -5.85386 -0.0842044 80.3045 -7.43202 -0.000752263 23.256 -1.30672 3.77311 0.812026 7.91057 -89.8021 11.0519 1.70821 0.229188 -0.617942 1.71664 0.153757 -23.1608 1.56034 0.732102 -3.14814 1.56033 0.732093 88.8154 -30.376 -108.942 37.1845 -13.7306 -10.9682 3.93572 -26.0989 -15.1628 -22.908 0.0349734 -8.63319 -82.9369 -51.6651 89.5115 -25.437 7.5077 -5.86745 5.85428 8.71011 -12.249 -1.50488 -0.117218 -7.93893 2.70059 -2.96499 4.45072 -6.38176 -3.52986 -3.16341 
33.5422 98.5228 -326.758 139.549 -83.6812 133.428 178.877 16.6859 82.8276 -10.8955 7.39759 -1.27027 63.7537 3.40667 -0.860255 18.441 -1.41031 2.78312 167.645 -6.53631 84.8972 -18.0904 -5.30982 -0.12588 82.0844 -8.29021 -0.263671 24.7925 -1.74348 4.79449 0.996749 7.96037 -89.9298 10.9551 2.01692 -0.0518577 -0.714283 2.0127 -0.140625 -23.2613 1.93923 0.55694 -3.24867 1.93923 0.556938 88.9778 -29.8437 -108.844 34.7738 -13.8798 -14.3588 3.13101 -25.6278 -17.0177 -23.3907 0.0793266 -8.72057 -83.2333 -52.8958 89.1897 -25.5336 8.89383 -3.63239 4.62462 7.88885 -11.0047 -1.61809 -0.108531 -7.16761 2.81009 -2.95038 5.98635 -4.89207 -3.79819 -3.70156 
33.7869 97.5509 -321.94 147.157 -84.2909 141.447 178.244 19.1924 82.5617 -8.21107 3.99383 -2.57835 64.8999 3.53584 -2.0301 16.6162 -2.0613 3.73659 168.263 -10.3105 85.2564 -17.2854 -4.3941 -1.10677 84.5057 -9.23031 0.449266 25.6167 -1.43653 4.00511 1.1451 8.00742 -89.9899 10.8628 2.28468 -0.194124 -0.806223 2.27391 -0.294546 -23.357 2.23734 0.501842 -3.34438 2.23734 0.50184 88.2564 -30.3673 -110.039 32.7275 -13.4411 -17.3599 1.88419 -28.8595 -18.1145 -21.2929 -0.0252839 -9.05274 -82.8346 -53.6792 89.8406 -26.4437 9.0213 -1.17784 4.1604 8.89882 -9.23623 -1.63076 -0.100143 -5.85487 3.02529 -2.68526 5.59081 -4.38231 -3.49702 -3.62966 
